<svg xmlns="http://www.w3.org/2000/svg" width="390" height="760" viewBox="0 0 390 760" role="img" aria-labelledby="title desc">
  <title id="title">Panel principal de BetCal Pro</title>
  <desc id="desc">Captura conceptual del panel principal de BetCal Pro.</desc>
  <defs>
    <linearGradient id="bg" x1="0" y1="0" x2="390" y2="760" gradientUnits="userSpaceOnUse">
      <stop stop-color="#171b24"/>
      <stop offset="1" stop-color="#08090c"/>
    </linearGradient>
    <linearGradient id="accent" x1="44" y1="138" x2="330" y2="450" gradientUnits="userSpaceOnUse">
      <stop stop-color="#8cf6c8"/>
      <stop offset="1" stop-color="#d8b86a"/>
    </linearGradient>
  </defs>
  <rect width="390" height="760" rx="34" fill="url(#bg)"/>
  <circle cx="300" cy="110" r="140" fill="#8cf6c8" opacity="0.16"/>
  <text x="34" y="72" fill="#f6f7f8" font-family="Arial, Helvetica, sans-serif" font-size="24" font-weight="700">Dashboard</text>
  <text x="34" y="100" fill="#a6abb4" font-family="Arial, Helvetica, sans-serif" font-size="13">Resumen de rendimiento</text>
  <rect x="34" y="132" width="322" height="168" rx="24" fill="#ffffff" opacity="0.075"/>
  <text x="58" y="174" fill="#a6abb4" font-family="Arial, Helvetica, sans-serif" font-size="13">Balance estimado</text>
  <text x="58" y="232" fill="#f6f7f8" font-family="Arial, Helvetica, sans-serif" font-size="58" font-weight="700">+18.4%</text>
  <path d="M58 264C104 226 132 251 164 220C199 186 230 206 258 185C288 162 314 169 334 142" fill="none" stroke="url(#accent)" stroke-width="5" stroke-linecap="round"/>
  <rect x="34" y="326" width="148" height="118" rx="22" fill="#ffffff" opacity="0.06"/>
  <rect x="208" y="326" width="148" height="118" rx="22" fill="#ffffff" opacity="0.06"/>
  <text x="58" y="370" fill="#a6abb4" font-family="Arial, Helvetica, sans-serif" font-size="12">Apuestas</text>
  <text x="58" y="412" fill="#8cf6c8" font-family="Arial, Helvetica, sans-serif" font-size="36" font-weight="700">42</text>
  <text x="232" y="370" fill="#a6abb4" font-family="Arial, Helvetica, sans-serif" font-size="12">Acierto</text>
  <text x="232" y="412" fill="#d8b86a" font-family="Arial, Helvetica, sans-serif" font-size="36" font-weight="700">64%</text>
  <rect x="34" y="474" width="322" height="206" rx="24" fill="#ffffff" opacity="0.055"/>
  <text x="58" y="520" fill="#f6f7f8" font-family="Arial, Helvetica, sans-serif" font-size="18" font-weight="700">Actividad reciente</text>
  <rect x="58" y="548" width="274" height="22" rx="11" fill="#ffffff" opacity="0.09"/>
  <rect x="58" y="590" width="228" height="22" rx="11" fill="#ffffff" opacity="0.09"/>
  <rect x="58" y="632" width="250" height="22" rx="11" fill="#ffffff" opacity="0.09"/>
</svg>
